# xmcd
# 
# Track frame offsets:
#     150
#     16900
#     32191
#     47326
#     59436
#     71024
#     88429
#     103261
#     121175
#     135127
#     154000
#     167270
#     182577
#     200842
#     212497
#     227831
# 
# Disc length: 3261
# 
# Revision: 3
# Processed by: cddbd v1.5.2PL0 Copyright (c) Steve Scherf et al.
# Submitted via: BonkEnc v1.0.5
# 
DISCID=d40cbb10
DTITLE=Tim O'Brien - Chameleon
DYEAR=2008
DGENRE=Country
TTITLE0=Where's Love Come From
TTITLE1=Hoss Race
TTITLE2=The Garden
TTITLE3=Red Dog In The Morning
TTITLE4=Phantom Phone Call
TTITLE5=Megna's
TTITLE6=Chameleon
TTITLE7=Father Forgive Me
TTITLE8=The Only Way To Never Hurt
TTITLE9=Get Out There And Dance
TTITLE10=This World Was Made For Everyone
TTITLE11=When In Rome
TTITLE12=World Of Trouble
TTITLE13=Safe In Your Arms
TTITLE14=Crooked Road
TTITLE15=Nothing To Say
EXTD=YEAR: 2008
EXTT0=
EXTT1=
EXTT2=
EXTT3=
EXTT4=
EXTT5=
EXTT6=
EXTT7=
EXTT8=
EXTT9=
EXTT10=
EXTT11=
EXTT12=
EXTT13=
EXTT14=
EXTT15=
PLAYORDER=
